<svg width="107" height="26" viewBox="0 0 107 26" fill="none" xmlns="http://www.w3.org/2000/svg">
<path fill-rule="evenodd" clip-rule="evenodd" d="M11.5648 3.6123C12.3809 4.42842 12.3809 5.75163 11.5648 6.56775L3.56767 14.5649C2.75155 15.381 1.42835 15.381 0.612221 14.5649C-0.203904 13.7487 -0.203903 12.4255 0.612222 11.6094L8.60933 3.6123C9.42546 2.79617 10.7487 2.79617 11.5648 3.6123ZM13.3024 9.8709C14.1186 10.687 14.1186 12.0102 13.3024 12.8264L9.47774 16.6511C8.66162 17.4672 7.33842 17.4672 6.52229 16.6511C5.70617 15.8349 5.70617 14.5117 6.52229 13.6956L10.347 9.8709C11.1631 9.05478 12.4863 9.05478 13.3024 9.8709ZM19.3872 14.3908C20.2034 13.5747 20.2034 12.2515 19.3872 11.4353C18.5711 10.6192 17.2479 10.6192 16.4318 11.4353L8.43467 19.4324C7.61854 20.2486 7.61854 21.5718 8.43467 22.3879C9.25079 23.204 10.574 23.204 11.3901 22.3879L19.3872 14.3908Z" fill="white" fill-opacity="0.8"/>
<path d="M31.759 20V6H40.779V8.26H34.359V11.62H40.359V13.74H34.359V17.74H40.859V20H31.759ZM45.6178 20.26C43.2978 20.26 41.9978 18.8 41.9978 16.3V9.94H44.4778V15.72C44.4778 17.36 45.1378 18.2 46.4978 18.2C47.9178 18.2 48.6778 17.1 48.6778 15.2V9.94H51.1778V20H48.7178V18.24C48.1578 19.52 47.0778 20.26 45.6178 20.26ZM52.9537 23.8V9.94H55.4137V11.82C55.9737 10.66 57.0937 9.64 58.8337 9.64C61.4337 9.64 63.2137 11.88 63.2137 14.88C63.2137 18.14 61.1737 20.3 58.6337 20.3C57.1937 20.3 56.0537 19.6 55.4337 18.56V23.8H52.9537ZM57.9737 18.16C59.5937 18.16 60.6737 16.84 60.6737 14.98C60.6737 13.14 59.6337 11.82 58.0337 11.82C56.4137 11.82 55.3937 13.16 55.3937 15.04C55.3937 16.86 56.3537 18.16 57.9737 18.16ZM64.3756 20V5.6H66.8556V11.46C67.4356 10.32 68.5156 9.64 70.0956 9.64C72.2556 9.64 73.5956 11.12 73.5956 13.7V20H71.1156V14.24C71.1156 12.56 70.5356 11.76 69.1556 11.76C67.6756 11.76 66.8556 12.84 66.8556 14.6V20H64.3756ZM79.7701 20.3C76.7301 20.3 74.6301 18.1 74.6301 15C74.6301 11.86 76.7101 9.64 79.7701 9.64C82.8501 9.64 84.9301 11.86 84.9301 15C84.9301 18.1 82.8301 20.3 79.7701 20.3ZM79.7701 18.14C81.4101 18.14 82.4101 16.84 82.4101 14.98C82.4101 13.1 81.4101 11.8 79.7701 11.8C78.1301 11.8 77.1701 13.1 77.1701 14.98C77.1701 16.84 78.1301 18.14 79.7701 18.14ZM86.1061 20V9.94H88.5861V11.94C89.0661 10.48 89.9461 9.76 91.0461 9.76C91.5661 9.76 91.9861 9.92 92.3461 10.2V12.54C91.9061 12.22 91.3861 12.08 90.7461 12.08C89.4661 12.08 88.6061 13.12 88.5861 14.96V20H86.1061ZM93.1343 20V9.94H95.6143V20H93.1343ZM94.3743 8.42C93.5343 8.42 92.8943 7.82 92.8943 7C92.8943 6.2 93.5143 5.6 94.3743 5.6C95.2343 5.6 95.8343 6.2 95.8343 7C95.8343 7.82 95.2143 8.42 94.3743 8.42ZM100.266 20.3C98.2859 20.3 96.8459 18.9 96.8459 17.04C96.8459 15.08 98.3459 13.78 100.486 13.78C101.706 13.78 102.606 14.26 103.106 14.94V14.32C103.106 12.68 102.106 11.76 100.506 11.76C99.2659 11.76 98.2059 12.24 97.3859 13.02V10.76C98.2859 10.14 99.4859 9.64 100.986 9.64C103.866 9.64 105.546 11.32 105.546 14.08V20H103.106V18.72C102.586 19.7 101.586 20.3 100.266 20.3ZM101.166 18.54C102.366 18.54 103.126 17.84 103.126 16.88C103.126 15.98 102.386 15.3 101.186 15.3C99.9459 15.3 99.2459 15.94 99.2459 16.92C99.2459 17.9 99.9259 18.54 101.166 18.54Z" fill="white" fill-opacity="0.8"/>
</svg>
