<svg width="85" height="85" viewBox="0 0 85 85" fill="none" xmlns="http://www.w3.org/2000/svg">
<path fill-rule="evenodd" clip-rule="evenodd" d="M48.7299 2.57918C52.1688 6.01807 52.1688 11.5936 48.7299 15.0325L15.0326 48.7298C11.5937 52.1687 6.01811 52.1687 2.57921 48.7298C-0.859687 45.2909 -0.859687 39.7154 2.57921 36.2765L36.2765 2.57918C39.7154 -0.859721 45.291 -0.859721 48.7299 2.57918ZM56.0553 28.9509C59.4942 32.3898 59.4942 37.9654 56.0553 41.4043L39.9392 57.5204C36.5003 60.9593 30.9247 60.9593 27.4859 57.5204C24.047 54.0815 24.047 48.506 27.4859 45.0671L43.602 28.9509C47.0409 25.5121 52.6164 25.5121 56.0553 28.9509ZM82.4208 48.7235C85.8597 45.2846 85.8597 39.7091 82.4209 36.2702C78.9819 32.8313 73.4064 32.8313 69.9675 36.2702L36.2702 69.9675C32.8313 73.4064 32.8313 78.9819 36.2702 82.4208C39.7091 85.8597 45.2846 85.8597 48.7235 82.4208L82.4208 48.7235Z" fill="white" fill-opacity="0.5"/>
</svg>
